<svg width="34" height="40" viewBox="0 0 34 40" fill="none" xmlns="http://www.w3.org/2000/svg">
<path fill-rule="evenodd" clip-rule="evenodd" d="M0.199219 4.3998C0.199219 2.41158 1.81099 0.799805 3.79922 0.799805H20.308C21.2628 0.799805 22.1785 1.17909 22.8536 1.85422L32.7448 11.7454C33.4199 12.4205 33.7992 13.3362 33.7992 14.291V35.5998C33.7992 37.588 32.1874 39.1998 30.1992 39.1998H3.79922C1.81099 39.1998 0.199219 37.588 0.199219 35.5998V4.3998ZM26.2549 18.0585C26.8397 17.2545 26.6619 16.1288 25.8579 15.5441C25.054 14.9594 23.9282 15.1371 23.3435 15.9411L14.9825 27.4375L10.472 22.927C9.76907 22.2241 8.62937 22.2241 7.92643 22.927C7.22348 23.63 7.22348 24.7697 7.92643 25.4726L13.9264 31.4726C14.2987 31.8448 14.8152 32.0355 15.34 31.9943C15.8648 31.9531 16.3453 31.6843 16.6549 31.2585L26.2549 18.0585Z" fill="#95C63E"/>
</svg>
