<svg width="18" height="16" viewBox="0 0 18 16" fill="none" xmlns="http://www.w3.org/2000/svg">
<path fill-rule="evenodd" clip-rule="evenodd" d="M0 0.75C0 0.335786 0.335786 0 0.75 0H11.25C11.6642 0 12 0.335786 12 0.75C12 1.16421 11.6642 1.5 11.25 1.5H11V15.25C11 15.6642 10.6642 16 10.25 16H8.75C8.33579 16 8 15.6642 8 15.25V12.75C8 12.3358 7.66421 12 7.25 12H4.75C4.33579 12 4 12.3358 4 12.75V15.25C4 15.6642 3.66421 16 3.25 16H0.75C0.335786 16 0 15.6642 0 15.25C0 14.8358 0.335786 14.5 0.75 14.5H1V1.5H0.75C0.335786 1.5 0 1.16421 0 0.75ZM3 3.5C3 3.22386 3.22386 3 3.5 3H4.5C4.77614 3 5 3.22386 5 3.5V4.5C5 4.77614 4.77614 5 4.5 5H3.5C3.22386 5 3 4.77614 3 4.5V3.5ZM3.5 7C3.22386 7 3 7.22386 3 7.5V8.5C3 8.77614 3.22386 9 3.5 9H4.5C4.77614 9 5 8.77614 5 8.5V7.5C5 7.22386 4.77614 7 4.5 7H3.5ZM7 3.5C7 3.22386 7.22386 3 7.5 3H8.5C8.77614 3 9 3.22386 9 3.5V4.5C9 4.77614 8.77614 5 8.5 5H7.5C7.22386 5 7 4.77614 7 4.5V3.5ZM7.5 7C7.22386 7 7 7.22386 7 7.5V8.5C7 8.77614 7.22386 9 7.5 9H8.5C8.77614 9 9 8.77614 9 8.5V7.5C9 7.22386 8.77614 7 8.5 7H7.5Z" fill="#031616"/>
<path fill-rule="evenodd" clip-rule="evenodd" d="M13.25 4C12.8358 4 12.5 4.33579 12.5 4.75V15C12.5 15.5523 12.9477 16 13.5 16H17.25C17.6642 16 18 15.6642 18 15.25C18 14.8358 17.6642 14.5 17.25 14.5H17V5.5H17.25C17.6642 5.5 18 5.16421 18 4.75C18 4.33579 17.6642 4 17.25 4H13.25ZM13.75 7.5C13.75 7.22386 13.9739 7 14.25 7H15.25C15.5261 7 15.75 7.22386 15.75 7.5V8.5C15.75 8.77614 15.5261 9 15.25 9H14.25C13.9739 9 13.75 8.77614 13.75 8.5V7.5ZM14.25 11C13.9739 11 13.75 11.2239 13.75 11.5V12.5C13.75 12.7761 13.9739 13 14.25 13H15.25C15.5261 13 15.75 12.7761 15.75 12.5V11.5C15.75 11.2239 15.5261 11 15.25 11H14.25Z" fill="#031616"/>
</svg>
