<svg width="15" height="17" viewBox="0 0 15 17" fill="none" xmlns="http://www.w3.org/2000/svg">
<path d="M2.5 16.6667H12.5C13.163 16.6667 13.7989 16.4033 14.2678 15.9344C14.7366 15.4656 15 14.8297 15 14.1667V4.16667C15 3.72464 14.8244 3.30072 14.5118 2.98815C14.1993 2.67559 13.7754 2.5 13.3333 2.5H11.6667V0.833333C11.6667 0.612319 11.5789 0.400358 11.4226 0.244078C11.2663 0.0877973 11.0543 0 10.8333 0C10.6123 0 10.4004 0.0877973 10.2441 0.244078C10.0878 0.400358 10 0.612319 10 0.833333V2.5H5V0.833333C5 0.612319 4.9122 0.400358 4.75592 0.244078C4.59964 0.0877973 4.38768 0 4.16667 0C3.94565 0 3.73369 0.0877973 3.57741 0.244078C3.42113 0.400358 3.33333 0.612319 3.33333 0.833333V2.5H1.66667C1.22464 2.5 0.800716 2.67559 0.488155 2.98815C0.175595 3.30072 0 3.72464 0 4.16667V14.1667C0 14.8297 0.263392 15.4656 0.732233 15.9344C1.20107 16.4033 1.83696 16.6667 2.5 16.6667ZM1.66667 8.75C1.66667 8.63949 1.71057 8.53351 1.78871 8.45537C1.86685 8.37723 1.97283 8.33333 2.08333 8.33333H12.9167C13.0272 8.33333 13.1332 8.37723 13.2113 8.45537C13.2894 8.53351 13.3333 8.63949 13.3333 8.75V14.1667C13.3333 14.3877 13.2455 14.5996 13.0893 14.7559C12.933 14.9122 12.721 15 12.5 15H2.5C2.27899 15 2.06702 14.9122 1.91074 14.7559C1.75446 14.5996 1.66667 14.3877 1.66667 14.1667V8.75Z" fill="#117C79"/>
</svg>
