<svg width="34" height="40" viewBox="0 0 34 40" fill="none" xmlns="http://www.w3.org/2000/svg">
<path fill-rule="evenodd" clip-rule="evenodd" d="M3.79922 0.799805C1.81099 0.799805 0.199219 2.41158 0.199219 4.3998V35.5998C0.199219 37.588 1.81099 39.1998 3.79922 39.1998H30.1992C32.1874 39.1998 33.7992 37.588 33.7992 35.5998V14.291C33.7992 13.3362 33.4199 12.4205 32.7448 11.7454L22.8536 1.85422C22.1785 1.17909 21.2628 0.799805 20.308 0.799805H3.79922ZM9.19922 21.1998C8.20511 21.1998 7.39922 22.0057 7.39922 22.9998C7.39922 23.9939 8.20511 24.7998 9.19922 24.7998H24.7992C25.7933 24.7998 26.5992 23.9939 26.5992 22.9998C26.5992 22.0057 25.7933 21.1998 24.7992 21.1998H9.19922ZM9.19922 28.3998C8.20511 28.3998 7.39922 29.2057 7.39922 30.1998C7.39922 31.1939 8.20511 31.9998 9.19922 31.9998H24.7992C25.7933 31.9998 26.5992 31.1939 26.5992 30.1998C26.5992 29.2057 25.7933 28.3998 24.7992 28.3998H9.19922Z" fill="#95C63E"/>
</svg>
