<svg width="40" height="40" viewBox="0 0 40 40" fill="none" xmlns="http://www.w3.org/2000/svg">
<path fill-rule="evenodd" clip-rule="evenodd" d="M20.0008 0.799805C20.9949 0.799805 21.8008 1.60569 21.8008 2.5998V20.5998C21.8008 21.5939 20.9949 22.3998 20.0008 22.3998C19.0067 22.3998 18.2008 21.5939 18.2008 20.5998V2.5998C18.2008 1.60569 19.0067 0.799805 20.0008 0.799805ZM8.96992 6.42336C9.67286 7.1263 9.67286 8.266 8.96992 8.96894C2.87774 15.0611 2.87774 24.9385 8.96992 31.0307C15.0621 37.1228 24.9395 37.1228 31.0316 31.0307C37.1238 24.9385 37.1238 15.0611 31.0316 8.96894C30.3287 8.266 30.3287 7.1263 31.0316 6.42336C31.7346 5.72041 32.8743 5.72041 33.5772 6.42336C41.0753 13.9214 41.0753 26.0782 33.5772 33.5763C26.0792 41.0743 13.9224 41.0743 6.42433 33.5763C-1.07374 26.0782 -1.07374 13.9214 6.42433 6.42336C7.12727 5.72041 8.26697 5.72041 8.96992 6.42336Z" fill="#95C63E"/>
</svg>
