<svg width="56" height="60" viewBox="0 0 56 60" fill="none" xmlns="http://www.w3.org/2000/svg">
<path fill-rule="evenodd" clip-rule="evenodd" d="M16.75 24.9997C16.7502 18.7866 21.7869 13.75 28 13.75C34.2132 13.75 39.25 18.7868 39.25 25L39.2497 25.082V26.25C39.2497 29.7885 40.5847 33.0123 42.7806 35.4498C43.0581 35.7578 43.1648 36.1834 43.0655 36.5859C42.9662 36.9884 42.6737 37.3155 42.2848 37.4591C39.7115 38.4091 37.0176 39.1098 34.2327 39.532C34.2442 39.6866 34.25 39.8427 34.25 40C34.25 43.4518 31.4518 46.25 28 46.25C24.5482 46.25 21.75 43.4518 21.75 40C21.75 39.8427 21.7559 39.6867 21.7673 39.5321C18.9822 39.1099 16.2881 38.4092 13.7146 37.4591C13.3256 37.3155 13.0332 36.9884 12.9339 36.5859C12.8346 36.1834 12.9413 35.7578 13.2188 35.4498C15.4147 33.0123 16.7497 29.7885 16.7497 26.25L16.75 24.9997ZM24.2537 39.8321C24.2513 39.8877 24.25 39.9437 24.25 40C24.25 42.0711 25.929 43.75 28 43.75C30.0711 43.75 31.75 42.0711 31.75 40C31.75 39.9437 31.7488 39.8877 31.7463 39.8321C30.5121 39.9432 29.2623 40 27.9997 40C26.7373 40 25.4878 39.9433 24.2537 39.8321Z" fill="#031616"/>
</svg>
