<svg width="40" height="34" viewBox="0 0 40 34" fill="none" xmlns="http://www.w3.org/2000/svg">
<path d="M39.3333 20.91L33.1667 3.91C32.1667 1.7 30 0 27.5 0C24.3333 0 21.6667 2.72 21.6667 5.95V6.8H18.3333V5.95C18.3333 2.72 15.6667 0 12.5 0C10 0 7.83333 1.7 7 4.08L0.833333 21.08C0.333333 22.1 0 23.29 0 24.65C0 29.75 4.16667 34 9.16667 34C14 34 17.8333 30.26 18.3333 25.5H21.6667C22.1667 30.26 26 34 30.8333 34C35.8333 34 40 29.75 40 24.65C40 23.29 39.6667 22.1 39.3333 20.91ZM9.16667 30.6C6 30.6 3.33333 27.88 3.33333 24.65C3.33333 21.42 6 18.7 9.16667 18.7C12.3333 18.7 15 21.42 15 24.65C15 27.88 12.3333 30.6 9.16667 30.6ZM30.8333 30.6C27.6667 30.6 25 27.88 25 24.65C25 21.42 27.6667 18.7 30.8333 18.7C34 18.7 36.6667 21.42 36.6667 24.65C36.6667 27.88 34 30.6 30.8333 30.6Z" fill="#95C63E"/>
</svg>
