<svg width="32" height="39" viewBox="0 0 32 39" fill="none" xmlns="http://www.w3.org/2000/svg">
<path d="M15.8742 14.4C19.8507 14.4 23.0742 11.1765 23.0742 7.2C23.0742 3.22355 19.8507 0 15.8742 0C11.8978 0 8.67422 3.22355 8.67422 7.2C8.67422 11.1765 11.8978 14.4 15.8742 14.4Z" fill="#117C79"/>
<path d="M0.190629 29.9845C-0.277093 31.2037 0.140656 32.5704 1.1723 33.371C5.23395 36.5233 10.3351 38.4 15.8745 38.4C21.4196 38.4 26.5254 36.5195 30.5891 33.3614C31.6202 32.56 32.0371 31.1931 31.5686 29.9742C29.1464 23.6725 23.0363 19.2 15.8816 19.2C8.72298 19.2 2.61012 23.6774 0.190629 29.9845Z" fill="#117C79"/>
</svg>
