<svg width="44" height="40" viewBox="0 0 44 40" fill="none" xmlns="http://www.w3.org/2000/svg">
<path d="M14.7992 15.1998C18.7757 15.1998 21.9992 11.9763 21.9992 7.9998C21.9992 4.02335 18.7757 0.799805 14.7992 0.799805C10.8228 0.799805 7.59922 4.02335 7.59922 7.9998C7.59922 11.9763 10.8228 15.1998 14.7992 15.1998Z" fill="#95C63E"/>
<path d="M32.7992 17.5998C36.1129 17.5998 38.7992 14.9135 38.7992 11.5998C38.7992 8.2861 36.1129 5.5998 32.7992 5.5998C29.4855 5.5998 26.7992 8.2861 26.7992 11.5998C26.7992 14.9135 29.4855 17.5998 32.7992 17.5998Z" fill="#95C63E"/>
<path d="M1.87589 35.4269C0.922359 34.8165 0.370052 33.7303 0.509738 32.6068C1.3932 25.5006 7.45387 19.9998 14.799 19.9998C22.1441 19.9998 28.2047 25.4991 29.0882 32.605C29.2279 33.7286 28.6756 34.8147 27.7221 35.4252C23.9918 37.8138 19.5571 39.1998 14.799 39.1998C10.0409 39.1998 5.60623 37.8152 1.87589 35.4269Z" fill="#95C63E"/>
<path d="M32.7994 34.3998C32.7146 34.3998 32.63 34.3992 32.5455 34.398C32.7107 33.6857 32.7565 32.9322 32.6606 32.1608C32.2396 28.7748 30.8795 25.6807 28.8488 23.1478C30.0742 22.665 31.4091 22.3998 32.8059 22.3998C37.4613 22.3998 41.4288 25.3454 42.9462 29.4745C43.2724 30.362 42.89 31.3376 42.0803 31.8258C39.3703 33.4598 36.1946 34.3998 32.7994 34.3998Z" fill="#95C63E"/>
</svg>
